<svg width="25" height="26" viewBox="0 0 25 26" fill="none" xmlns="http://www.w3.org/2000/svg">
<path d="M22 7.95521C20.3613 5.86617 15.4221 2.46525 10.12 5.10328C16.8074 4.93217 16.8016 12.9461 9.4 12.9461C6.8368 12.9461 5.14192 12.3329 4.03168 11.5715M4 16.1502C4.59616 16.5424 6.3832 17.3295 8.7664 17.3295C11.7472 17.3295 13.6422 14.9695 17.2163 14.9695C20.0762 14.9695 21.1043 15.9477 22 16.6165M4 19.9604C4.59616 20.354 6.3832 21.1411 8.7664 21.1411C13.216 21.1411 13.6552 18.7797 17.3459 18.7797C19.683 18.7797 20.9459 19.7636 21.6083 20.6064" stroke="#1889B8" stroke-width="1.3" stroke-linecap="round" stroke-linejoin="round"/>
</svg>
