<svg width="25" height="26" viewBox="0 0 25 26" fill="none" xmlns="http://www.w3.org/2000/svg">
<path d="M15.1527 5.30234C15.2309 5.62526 15.2517 5.96797 15.2038 6.31901L14.3475 12.6148M15.1527 5.30234C14.4944 2.58672 10.5069 2.58672 9.84857 5.30234M15.1527 5.30234C16.785 3.62734 19.7152 5.29505 19.7923 7.38984M9.84857 5.30234C9.77044 5.62526 9.75065 5.96797 9.79753 6.31901L10.6538 12.6148M9.84857 5.30234C8.21628 3.62734 5.28607 5.29505 5.20898 7.39089C5.13815 9.30755 6.44857 11.8805 7.6069 13.6607M19.7923 7.38984C20.834 7.56484 22.9173 8.54089 22.9173 11.0482C22.9173 13.3117 20.2017 15.7034 17.5184 17.6044C16.9121 18.0336 16.609 18.2482 16.4142 18.4044C15.869 18.8296 15.3853 19.328 14.9767 19.8857C14.8267 20.0836 14.6715 20.318 14.3611 20.7846L14.1194 21.1492C13.942 21.4161 13.7014 21.6349 13.419 21.7863C13.1366 21.9377 12.8211 22.017 12.5007 22.017C12.1802 22.017 11.8647 21.9377 11.5823 21.7863C11.2999 21.6349 11.0593 21.4161 10.8819 21.1492L10.6402 20.7846C10.4437 20.4794 10.2387 20.1796 10.0257 19.8857C9.6164 19.3279 9.13195 18.8294 8.58607 18.4044C8.39232 18.2482 8.08919 18.0336 7.48294 17.6044C4.79961 15.7034 2.08398 13.3128 2.08398 11.0471C2.08398 8.53984 4.16732 7.5638 5.20898 7.3888M19.7923 7.38984C19.8632 9.30651 18.5527 11.8784 17.3944 13.6586" stroke="#1889B8" stroke-width="1.3" stroke-linecap="round" stroke-linejoin="round"/>
<path d="M18.75 16.8076L17.9594 20.7597C17.8886 21.1138 17.6974 21.4324 17.4182 21.6614C17.1391 21.8905 16.7892 22.0157 16.4281 22.016H8.57292C8.21166 22.016 7.86155 21.8908 7.58218 21.6618C7.30281 21.4327 7.11143 21.114 7.04062 20.7597L6.25 16.8076" stroke="#1889B8" stroke-width="1.3" stroke-linecap="round" stroke-linejoin="round"/>
</svg>
