<svg width="51" height="51" viewBox="0 0 51 51" fill="none" xmlns="http://www.w3.org/2000/svg">
<path d="M4.66699 42.479L7.27116 43.8863C8.93783 44.7873 10.8128 44.7873 12.4795 43.8863C14.1462 42.9863 16.0212 42.9863 17.6878 43.8863C19.3545 44.7873 21.2295 44.7873 22.8962 43.8863C24.5628 42.9863 26.4378 42.9863 28.1045 43.8863C29.7712 44.7873 31.6462 44.7873 33.3128 43.8863C34.9795 42.9863 36.8545 42.9863 38.5212 43.8863C40.1878 44.7873 42.0628 44.7873 43.7295 43.8863L46.3337 42.479M15.0837 12.2707V4.979M32.792 12.2707V4.979M22.3753 9.14567V4.979M40.0837 9.14567V4.979" stroke="#1889B8" stroke-width="2" stroke-miterlimit="2" stroke-linecap="round" stroke-linejoin="round"/>
<path d="M13 7.0625H21.3333M30.7083 7.0625H39.0417" stroke="#1889B8" stroke-width="2" stroke-linecap="round" stroke-linejoin="round"/>
<path d="M19.2503 16.4372C19.2503 14.136 17.3848 12.2705 15.0837 12.2705C12.7825 12.2705 10.917 14.136 10.917 16.4372V33.1038C10.917 35.405 12.7825 37.2705 15.0837 37.2705C17.3848 37.2705 19.2503 35.405 19.2503 33.1038V16.4372Z" stroke="#1889B8" stroke-width="2" stroke-linecap="round" stroke-linejoin="round"/>
<path d="M36.9583 16.4372C36.9583 14.136 35.0929 12.2705 32.7917 12.2705C30.4905 12.2705 28.625 14.136 28.625 16.4372V33.1038C28.625 35.405 30.4905 37.2705 32.7917 37.2705C35.0929 37.2705 36.9583 35.405 36.9583 33.1038V16.4372Z" stroke="#1889B8" stroke-width="2" stroke-linecap="round" stroke-linejoin="round"/>
<path d="M28.6253 16.4372C28.6253 15.3321 29.0643 14.2723 29.8457 13.4909C30.6271 12.7095 31.6869 12.2705 32.792 12.2705C33.8971 12.2705 34.9569 12.7095 35.7383 13.4909C36.5197 14.2723 36.9587 15.3321 36.9587 16.4372V20.6038H28.6253V16.4372ZM10.917 16.4372C10.917 15.3321 11.356 14.2723 12.1374 13.4909C12.9188 12.7095 13.9786 12.2705 15.0837 12.2705C16.1887 12.2705 17.2485 12.7095 18.0299 13.4909C18.8113 14.2723 19.2503 15.3321 19.2503 16.4372V20.6038H10.917V16.4372Z" stroke="#1889B8" stroke-width="2" stroke-linecap="round" stroke-linejoin="round"/>
</svg>
