<svg width="51" height="51" viewBox="0 0 51 51" fill="none" xmlns="http://www.w3.org/2000/svg">
<path d="M25.1094 27.375C25.1094 27.6858 24.9859 27.9839 24.7661 28.2036C24.5464 28.4234 24.2483 28.5469 23.9375 28.5469H14.5625C14.2517 28.5469 13.9536 28.4234 13.7339 28.2036C13.5141 27.9839 13.3906 27.6858 13.3906 27.375C13.3906 27.0642 13.5141 26.7661 13.7339 26.5464C13.9536 26.3266 14.2517 26.2031 14.5625 26.2031H23.9375C24.2483 26.2031 24.5464 26.3266 24.7661 26.5464C24.9859 26.7661 25.1094 27.0642 25.1094 27.375ZM23.9375 19.9531H14.5625C14.2517 19.9531 13.9536 20.0766 13.7339 20.2964C13.5141 20.5161 13.3906 20.8142 13.3906 21.125C13.3906 21.4358 13.5141 21.7339 13.7339 21.9536C13.9536 22.1734 14.2517 22.2969 14.5625 22.2969H23.9375C24.2483 22.2969 24.5464 22.1734 24.7661 21.9536C24.9859 21.7339 25.1094 21.4358 25.1094 21.125C25.1094 20.8142 24.9859 20.5161 24.7661 20.2964C24.5464 20.0766 24.2483 19.9531 23.9375 19.9531ZM45.4219 32.1836V44.5625C45.4224 44.7684 45.3685 44.9709 45.2659 45.1494C45.1632 45.3279 45.0153 45.4762 44.8371 45.5794C44.6589 45.6826 44.4566 45.737 44.2507 45.7371C44.0447 45.7372 43.8424 45.683 43.6641 45.5801L38.7812 42.7871L33.8984 45.5801C33.7201 45.683 33.5178 45.7372 33.3118 45.7371C33.1059 45.737 32.9036 45.6826 32.7254 45.5794C32.5472 45.4762 32.3993 45.3279 32.2966 45.1494C32.194 44.9709 32.1402 44.7684 32.1406 44.5625V39.4844H8.3125C7.5873 39.4844 6.8918 39.1963 6.37901 38.6835C5.86621 38.1707 5.57812 37.4752 5.57812 36.75V11.75C5.57812 11.0248 5.86621 10.3293 6.37901 9.8165C6.8918 9.30371 7.5873 9.01562 8.3125 9.01562H42.6875C43.4127 9.01563 44.1082 9.30371 44.621 9.8165C45.1338 10.3293 45.4219 11.0248 45.4219 11.75V17.8789C46.4074 18.7915 47.1936 19.8979 47.7313 21.1287C48.269 22.3595 48.5466 23.6881 48.5466 25.0312C48.5466 26.3744 48.269 27.703 47.7313 28.9338C47.1936 30.1646 46.4074 31.271 45.4219 32.1836ZM38.7812 17.6094C37.3133 17.6094 35.8784 18.0447 34.6579 18.8602C33.4374 19.6757 32.4861 20.8349 31.9243 22.191C31.3626 23.5472 31.2156 25.0395 31.502 26.4792C31.7884 27.9189 32.4952 29.2413 33.5332 30.2793C34.5712 31.3173 35.8936 32.0241 37.3333 32.3105C38.773 32.5969 40.2653 32.4499 41.6215 31.8882C42.9776 31.3264 44.1368 30.3751 44.9523 29.1546C45.7678 27.9341 46.2031 26.4992 46.2031 25.0312C46.2031 23.0628 45.4212 21.1751 44.0293 19.7832C42.6374 18.3913 40.7497 17.6094 38.7812 17.6094ZM32.1406 37.1406V32.1836C30.4307 30.5878 29.3502 28.4312 29.0959 26.1061C28.8415 23.7811 29.4301 21.4419 30.7545 19.5141C32.079 17.5863 34.0514 16.1979 36.313 15.6014C38.5746 15.0049 40.9752 15.2399 43.0781 16.2637V11.75C43.0781 11.6464 43.037 11.547 42.9637 11.4738C42.8905 11.4005 42.7911 11.3594 42.6875 11.3594H8.3125C8.2089 11.3594 8.10954 11.4005 8.03629 11.4738C7.96303 11.547 7.92188 11.6464 7.92188 11.75V36.75C7.92188 36.8536 7.96303 36.953 8.03629 37.0262C8.10954 37.0995 8.2089 37.1406 8.3125 37.1406H32.1406ZM43.0781 33.7988C41.7409 34.4555 40.271 34.7969 38.7812 34.7969C37.2915 34.7969 35.8216 34.4555 34.4844 33.7988V42.543L38.1953 40.4199C38.3735 40.3171 38.5755 40.2629 38.7812 40.2629C38.987 40.2629 39.189 40.3171 39.3672 40.4199L43.0781 42.543V33.7988Z" fill="#1889B8"/>
</svg>
