<svg width="51" height="51" viewBox="0 0 51 51" fill="none" xmlns="http://www.w3.org/2000/svg">
<path d="M44.3848 37.854C40.4087 44.08 33.4368 48.2082 25.4993 48.2082C13.1306 48.2082 3.10352 38.1811 3.10352 25.8123C3.10352 24.3155 3.25039 22.854 3.5306 21.4384M46.8441 32.6123C46.4208 33.9416 45.8736 35.2281 45.2098 36.455M7.00456 13.178C11.0389 7.28421 17.8171 3.4165 25.4993 3.4165C37.8681 3.4165 47.8952 13.4436 47.8952 25.8123C47.8952 27.2769 47.7546 28.7092 47.4858 30.0967" stroke="#1889B8" stroke-width="1.5" stroke-linecap="round" stroke-linejoin="round"/>
<path d="M9.33008 30.0875C10.804 32.4677 16.054 33.7062 23.252 33.4229M17.9092 23.9198C22.7238 23.8344 27.6447 26.1396 29.1176 28.576" stroke="#1889B8" stroke-width="1.5" stroke-linecap="round" stroke-linejoin="round"/>
<path d="M37.4494 24.6875C36.0046 25.8125 35.4088 25.4031 34.0202 25.9823C32.6317 26.5615 29.1171 29.4344 26.34 29.2635M26.0869 33.0542C29.5432 33.0542 31.6119 30.901 33.539 29.4552C35.4661 28.0094 37.3734 27.2292 40.6327 27.5406M26.0869 35.1229C26.4484 35.6021 27.3442 35.6958 28.1234 35.4198C29.5359 34.9219 31.7442 34.8021 32.2557 34.3958" stroke="#1889B8" stroke-width="1.5" stroke-linecap="round" stroke-linejoin="round"/>
<path d="M20.9004 33.5855C21.2285 37.497 24.7473 39.7105 26.5587 38.797C28.0264 38.0574 33.2254 35.6491 34.4358 35.573M37.9129 23.023C38.2337 22.6314 38.6858 22.4918 39.4431 22.8532C42.2921 24.2105 48.1598 29.2636 47.8868 31.5814C47.8264 32.0918 47.1452 32.4032 46.5639 32.8084C45.6889 33.422 44.6618 33.9959 43.9014 33.1866C41.5202 30.6553 40.8785 26.9897 39.3285 25.6116C38.8462 25.1803 38.466 24.8511 38.1848 24.5834C37.566 23.9918 37.5775 23.4334 37.9129 23.023Z" stroke="#1889B8" stroke-width="1.5" stroke-linecap="round" stroke-linejoin="round"/>
<path d="M32.2645 32.8562C31.6447 33.7447 31.9395 34.3687 32.6677 34.6135C33.5531 34.9104 37.1312 37.4614 40.7656 37.702C44.6052 37.9562 45.9229 38.0135 45.6114 36.8791C45.3312 35.8624 42.2322 36.2187 40.0427 35.7364C36.9968 35.0666 35.027 33.5645 34.3614 32.9406C33.6958 32.3166 32.6895 32.2468 32.2645 32.8562Z" stroke="#1889B8" stroke-width="1.5" stroke-linecap="round" stroke-linejoin="round"/>
<path d="M14.3386 23.7658L11.5387 21.1491C11.3572 20.9794 11.0724 20.989 10.9027 21.1706L9.4759 22.6972C9.3062 22.8788 9.31582 23.1635 9.49739 23.3332L12.2972 25.95C12.4788 26.1197 12.7636 26.11 12.9333 25.9285L14.3601 24.4018C14.5298 24.2203 14.5201 23.9355 14.3386 23.7658Z" stroke="#1889B8" stroke-width="1.5" stroke-linecap="round" stroke-linejoin="round"/>
<path d="M9.82018 23.6351C8.84518 24.9351 9.4181 26.4153 10.7858 27.4143C11.1806 27.7028 15.0837 29.5997 17.3608 25.658C19.7066 21.5965 13.9316 19.9903 12.2598 21.7757M4.96289 24.0705C5.37435 26.7486 6.52122 29.5393 7.88164 30.0361C9.24206 30.533 11.4098 29.7101 9.75143 27.3861C8.09414 25.0632 6.81914 23.3882 6.81914 23.3882" stroke="#1889B8" stroke-width="1.5" stroke-linecap="round" stroke-linejoin="round"/>
<path d="M24.2717 36.8897C24.9989 36.8897 25.5884 36.3002 25.5884 35.573C25.5884 34.8458 24.9989 34.2563 24.2717 34.2563C23.5446 34.2563 22.9551 34.8458 22.9551 35.573C22.9551 36.3002 23.5446 36.8897 24.2717 36.8897Z" stroke="#1889B8" stroke-width="1.5" stroke-linecap="round" stroke-linejoin="round"/>
<path d="M5.55299 23.7857C6.28017 23.7857 6.86966 23.1962 6.86966 22.469C6.86966 21.7418 6.28017 21.1523 5.55299 21.1523C4.82582 21.1523 4.23633 21.7418 4.23633 22.469C4.23633 23.1962 4.82582 23.7857 5.55299 23.7857Z" stroke="#1889B8" stroke-width="1.5" stroke-linecap="round" stroke-linejoin="round"/>
<path d="M25.5195 34.9849C25.8601 33.4703 27.182 28.5963 25.5195 27.5765C23.857 26.5568 19.4174 24.9693 18.757 27.7276C18.5299 28.6713 20.0799 30.3526 23.0831 30.3724C23.6122 31.5807 23.2528 34.7443 23.2528 34.7443M6.62784 21.713C7.86534 19.5943 5.82576 18.489 5.82576 18.489C8.94243 19.4526 10.3883 18.687 10.8987 16.8172C9.45284 16.7609 8.60284 13.814 6.0518 15.5422C3.50076 17.2703 1.90805 19.7338 4.23513 22.4693" stroke="#1889B8" stroke-width="1.5" stroke-linecap="round" stroke-linejoin="round"/>
<path d="M9.03516 15.6251C10.5664 13.1064 13.5904 14.6918 15.2331 12.623C14.8935 15.1168 10.8977 16.8168 10.8977 16.8168" stroke="#1889B8" stroke-width="1.5" stroke-linecap="round" stroke-linejoin="round"/>
<path d="M4.05078 17.3407C4.55078 12.8782 7.45911 12.1928 12.6654 13.8678" stroke="#1889B8" stroke-width="1.5" stroke-linecap="round" stroke-linejoin="round"/>
</svg>
