<svg width="51" height="51" viewBox="0 0 51 51" fill="none" xmlns="http://www.w3.org/2000/svg">
<path d="M25.4994 38.3125C25.4994 39.4176 25.0604 40.4774 24.279 41.2588C23.4976 42.0402 22.4378 42.4792 21.3327 42.4792C20.2276 42.4792 19.1678 42.0402 18.3864 41.2588C17.605 40.4774 17.166 39.4176 17.166 38.3125M28.6244 29.9792C27.5253 29.9635 26.477 29.5142 25.7077 28.7292L24.2493 27.0625C22.5827 25.3958 20.0827 25.3958 18.416 27.0625L16.9577 28.7292C16.1884 29.5142 15.1401 29.9635 14.041 29.9792H12.9993C10.7892 29.9792 8.6696 29.1012 7.10679 27.5384C5.54399 25.9756 4.66602 23.856 4.66602 21.6458C4.66602 19.4357 5.54399 17.3161 7.10679 15.7533C8.6696 14.1905 10.7892 13.3125 12.9993 13.3125H29.666C31.8762 13.3125 33.9958 14.1905 35.5586 15.7533C37.1214 17.3161 37.9994 19.4357 37.9994 21.6458C37.9994 23.856 37.1214 25.9756 35.5586 27.5384C33.9958 29.1012 31.8762 29.9792 29.666 29.9792H28.6244Z" stroke="#1889B8" stroke-width="2.5" stroke-linecap="round" stroke-linejoin="round"/>
<path d="M21.332 42.479C21.332 43.5841 21.771 44.6439 22.5524 45.4253C23.3338 46.2067 24.3936 46.6457 25.4987 46.6457H33.832C40.707 46.6457 46.332 41.0207 46.332 34.1457V4.979H37.9987V34.1457C37.9987 35.2507 37.5597 36.3105 36.7783 37.0919C35.9969 37.8733 34.9371 38.3123 33.832 38.3123M37.9987 21.6457H46.332" stroke="#1889B8" stroke-width="2.5" stroke-linecap="round" stroke-linejoin="round"/>
<path d="M9.8737 46.6458C10.449 46.6458 10.9154 46.1795 10.9154 45.6042C10.9154 45.0289 10.449 44.5625 9.8737 44.5625C9.2984 44.5625 8.83203 45.0289 8.83203 45.6042C8.83203 46.1795 9.2984 46.6458 9.8737 46.6458Z" stroke="#1889B8" stroke-width="2.5" stroke-linecap="round" stroke-linejoin="round"/>
<path d="M6.75 37.2705H6.77083" stroke="#1889B8" stroke-width="2.5" stroke-linecap="round" stroke-linejoin="round"/>
</svg>
