<svg width="25" height="26" viewBox="0 0 25 26" fill="none" xmlns="http://www.w3.org/2000/svg">
<path d="M12.5003 7.43278C11.3953 7.43278 10.3354 7.87177 9.55405 8.65317C8.77265 9.43457 8.33366 10.4944 8.33366 11.5994V16.8078M12.5003 7.43278C13.6054 7.43278 14.6652 7.87177 15.4466 8.65317C16.228 9.43457 16.667 10.4944 16.667 11.5994V16.8078M12.5003 7.43278V4.30778M16.667 16.8078H8.33366M16.667 16.8078V19.9328C16.667 20.4853 16.4475 21.0152 16.0568 21.4059C15.6661 21.7966 15.1362 22.0161 14.5837 22.0161H10.417C9.86446 22.0161 9.33455 21.7966 8.94385 21.4059C8.55315 21.0152 8.33366 20.4853 8.33366 19.9328V16.8078M9.37533 4.30778H15.6253M9.37533 4.30778C9.37533 4.58405 9.26558 4.849 9.07023 5.04435C8.87488 5.2397 8.60993 5.34945 8.33366 5.34945C8.05739 5.34945 7.79244 5.2397 7.59709 5.04435C7.40174 4.849 7.29199 4.58405 7.29199 4.30778C7.29199 4.03151 7.40174 3.76656 7.59709 3.57121C7.79244 3.37586 8.05739 3.26611 8.33366 3.26611C8.60993 3.26611 8.87488 3.37586 9.07023 3.57121C9.26558 3.76656 9.37533 4.03151 9.37533 4.30778Z" stroke="#1889B8" stroke-width="1.3" stroke-linecap="round" stroke-linejoin="round"/>
<path d="M12.5003 4.82853C12.788 4.82853 13.0212 4.59535 13.0212 4.3077C13.0212 4.02005 12.788 3.78687 12.5003 3.78687C12.2127 3.78687 11.9795 4.02005 11.9795 4.3077C11.9795 4.59535 12.2127 4.82853 12.5003 4.82853Z" fill="#1889B8" stroke="#1889B8" stroke-width="1.3" stroke-linecap="round" stroke-linejoin="round"/>
</svg>
