<svg width="25" height="26" viewBox="0 0 25 26" fill="none" xmlns="http://www.w3.org/2000/svg">
<path d="M12.4997 4.04744C11.9471 4.04744 11.4172 4.26694 11.0265 4.65764C10.6358 5.04834 10.4163 5.57824 10.4163 6.13078C10.4163 6.68331 10.6358 7.21322 11.0265 7.60392C11.4172 7.99462 11.9471 8.21411 12.4997 8.21411C13.0522 8.21411 13.5821 7.99462 13.9728 7.60392C14.3635 7.21322 14.583 6.68331 14.583 6.13078C14.583 5.57824 14.3635 5.04834 13.9728 4.65764C13.5821 4.26694 13.0522 4.04744 12.4997 4.04744ZM9.11426 6.13078C9.11426 5.23291 9.47094 4.37182 10.1058 3.73693C10.7407 3.10204 11.6018 2.74536 12.4997 2.74536C13.3975 2.74536 14.2586 3.10204 14.8935 3.73693C15.5284 4.37182 15.8851 5.23291 15.8851 6.13078C15.8851 7.02865 15.5284 7.88974 14.8935 8.52463C14.2586 9.15952 13.3975 9.51619 12.4997 9.51619C11.6018 9.51619 10.7407 9.15952 10.1058 8.52463C9.47094 7.88974 9.11426 7.02865 9.11426 6.13078ZM4.94759 6.13078C4.53319 6.13078 4.13576 6.2954 3.84274 6.58842C3.54971 6.88145 3.38509 7.27888 3.38509 7.69328C3.38509 8.10768 3.54971 8.50511 3.84274 8.79813C4.13576 9.09116 4.53319 9.25578 4.94759 9.25578C5.36199 9.25578 5.75942 9.09116 6.05245 8.79813C6.34547 8.50511 6.51009 8.10768 6.51009 7.69328C6.51009 7.27888 6.34547 6.88145 6.05245 6.58842C5.75942 6.2954 5.36199 6.13078 4.94759 6.13078ZM2.08301 7.69328C2.08301 6.93354 2.38481 6.20492 2.92202 5.66771C3.45924 5.1305 4.18786 4.82869 4.94759 4.82869C5.70733 4.82869 6.43594 5.1305 6.97316 5.66771C7.51037 6.20492 7.81217 6.93354 7.81217 7.69328C7.81217 8.45301 7.51037 9.18163 6.97316 9.71884C6.43594 10.2561 5.70733 10.5579 4.94759 10.5579C4.18786 10.5579 3.45924 10.2561 2.92202 9.71884C2.38481 9.18163 2.08301 8.45301 2.08301 7.69328ZM18.4893 7.69328C18.4893 7.27888 18.6539 6.88145 18.9469 6.58842C19.2399 6.2954 19.6374 6.13078 20.0518 6.13078C20.4662 6.13078 20.8636 6.2954 21.1566 6.58842C21.4496 6.88145 21.6143 7.27888 21.6143 7.69328C21.6143 8.10768 21.4496 8.50511 21.1566 8.79813C20.8636 9.09116 20.4662 9.25578 20.0518 9.25578C19.6374 9.25578 19.2399 9.09116 18.9469 8.79813C18.6539 8.50511 18.4893 8.10768 18.4893 7.69328ZM20.0518 4.82869C19.292 4.82869 18.5634 5.1305 18.0262 5.66771C17.489 6.20492 17.1872 6.93354 17.1872 7.69328C17.1872 8.45301 17.489 9.18163 18.0262 9.71884C18.5634 10.2561 19.292 10.5579 20.0518 10.5579C20.8115 10.5579 21.5401 10.2561 22.0773 9.71884C22.6145 9.18163 22.9163 8.45301 22.9163 7.69328C22.9163 6.93354 22.6145 6.20492 22.0773 5.66771C21.5401 5.1305 20.8115 4.82869 20.0518 4.82869ZM7.81217 12.7714C7.81217 12.3225 7.99051 11.8919 8.30796 11.5745C8.6254 11.257 9.05595 11.0787 9.50488 11.0787H15.4945C15.9434 11.0787 16.3739 11.257 16.6914 11.5745C17.0088 11.8919 17.1872 12.3225 17.1872 12.7714V16.8079C17.1872 18.0511 16.6933 19.2433 15.8142 20.1224C14.9352 21.0015 13.7429 21.4954 12.4997 21.4954C11.2565 21.4954 10.0642 21.0015 9.18511 20.1224C8.30604 19.2433 7.81217 18.0511 7.81217 16.8079V12.7714ZM9.50488 12.3808C9.40128 12.3808 9.30193 12.4219 9.22867 12.4952C9.15541 12.5684 9.11426 12.6678 9.11426 12.7714V16.8079C9.11426 17.7057 9.47094 18.5668 10.1058 19.2017C10.7407 19.8366 11.6018 20.1933 12.4997 20.1933C13.3975 20.1933 14.2586 19.8366 14.8935 19.2017C15.5284 18.5668 15.8851 17.7057 15.8851 16.8079V12.7714C15.8851 12.6678 15.8439 12.5684 15.7707 12.4952C15.6974 12.4219 15.5981 12.3808 15.4945 12.3808H9.50488ZM6.84968 12.1152C6.79724 12.3256 6.77086 12.5443 6.77051 12.7714V13.4839L3.67676 14.3131C3.57678 14.3399 3.49156 14.4054 3.4398 14.495C3.38804 14.5847 3.37398 14.6912 3.40072 14.7912L4.17572 17.6839C4.38691 18.4725 4.87598 19.1583 5.55284 19.6148C6.22969 20.0714 7.04873 20.2679 7.85905 20.1683C8.15582 20.5781 8.50556 20.9467 8.89915 21.2646C8.82033 21.2907 8.74047 21.3143 8.65957 21.3355C8.06496 21.4949 7.44477 21.5356 6.83442 21.4554C6.22406 21.3751 5.63549 21.1754 5.10232 20.8677C4.56915 20.5599 4.10182 20.1502 3.72702 19.6618C3.35221 19.1734 3.07727 18.616 2.9179 18.0214L2.14238 15.1287C2.08489 14.914 2.07026 14.69 2.09932 14.4696C2.12838 14.2492 2.20056 14.0367 2.31175 13.8442C2.42294 13.6518 2.57096 13.483 2.74735 13.3478C2.92374 13.2125 3.12504 13.1133 3.33978 13.0558L6.84968 12.1152ZM16.0997 21.2646C16.1788 21.2907 16.2589 21.3143 16.3398 21.3355C16.9344 21.4948 17.5546 21.5355 18.1649 21.4551C18.7752 21.3748 19.3637 21.175 19.8968 20.8672C20.43 20.5595 20.8972 20.1497 21.272 19.6613C21.6467 19.1729 21.9216 18.6155 22.0809 18.0209L22.8559 15.1282C22.9721 14.6946 22.9112 14.2326 22.6868 13.8439C22.4623 13.4551 22.0926 13.1715 21.659 13.0553L18.1497 12.1146C18.2021 12.3254 18.2285 12.5441 18.2288 12.7709V13.4844L21.3221 14.3125C21.3717 14.3258 21.4182 14.3488 21.4589 14.3801C21.4997 14.4114 21.5338 14.4504 21.5595 14.4949C21.5851 14.5394 21.6017 14.5885 21.6084 14.6394C21.615 14.6904 21.6115 14.7421 21.5981 14.7917L20.8231 17.6839C20.6119 18.4724 20.1229 19.1581 19.4462 19.6146C18.7695 20.0712 17.9505 20.2678 17.1403 20.1683C16.8435 20.5781 16.4933 20.9467 16.0997 21.2646Z" fill="#1889B8"/>
</svg>
