<svg width="25" height="26" viewBox="0 0 25 26" fill="none" xmlns="http://www.w3.org/2000/svg">
<path d="M12.3047 13.4224C12.3047 13.5778 12.243 13.7268 12.1331 13.8367C12.0232 13.9466 11.8742 14.0083 11.7188 14.0083H7.03125C6.87585 14.0083 6.72681 13.9466 6.61693 13.8367C6.50705 13.7268 6.44531 13.5778 6.44531 13.4224C6.44531 13.267 6.50705 13.1179 6.61693 13.008C6.72681 12.8982 6.87585 12.8364 7.03125 12.8364H11.7188C11.8742 12.8364 12.0232 12.8982 12.1331 13.008C12.243 13.1179 12.3047 13.267 12.3047 13.4224ZM11.7188 9.71143H7.03125C6.87585 9.71143 6.72681 9.77316 6.61693 9.88304C6.50705 9.99293 6.44531 10.142 6.44531 10.2974C6.44531 10.4528 6.50705 10.6018 6.61693 10.7117C6.72681 10.8216 6.87585 10.8833 7.03125 10.8833H11.7188C11.8742 10.8833 12.0232 10.8216 12.1331 10.7117C12.243 10.6018 12.3047 10.4528 12.3047 10.2974C12.3047 10.142 12.243 9.99293 12.1331 9.88304C12.0232 9.77316 11.8742 9.71143 11.7188 9.71143ZM22.4609 15.8267V22.0161C22.4612 22.1191 22.4343 22.2203 22.3829 22.3096C22.3316 22.3988 22.2577 22.473 22.1686 22.5246C22.0794 22.5762 21.9783 22.6033 21.8753 22.6034C21.7724 22.6035 21.6712 22.5764 21.582 22.5249L19.1406 21.1284L16.6992 22.5249C16.61 22.5764 16.5089 22.6035 16.4059 22.6034C16.3029 22.6033 16.2018 22.5762 16.1127 22.5246C16.0236 22.473 15.9496 22.3988 15.8983 22.3096C15.847 22.2203 15.8201 22.1191 15.8203 22.0161V19.4771H3.90625C3.54365 19.4771 3.1959 19.333 2.9395 19.0766C2.68311 18.8202 2.53906 18.4725 2.53906 18.1099V5.60986C2.53906 5.24726 2.68311 4.89951 2.9395 4.64312C3.1959 4.38672 3.54365 4.24268 3.90625 4.24268H21.0938C21.4564 4.24268 21.8041 4.38672 22.0605 4.64312C22.3169 4.89951 22.4609 5.24726 22.4609 5.60986V8.67432C22.9537 9.13061 23.3468 9.68381 23.6157 10.2992C23.8845 10.9146 24.0233 11.5789 24.0233 12.2505C24.0233 12.9221 23.8845 13.5864 23.6157 14.2018C23.3468 14.8172 22.9537 15.3704 22.4609 15.8267ZM19.1406 8.53955C18.4067 8.53955 17.6892 8.75719 17.0789 9.16496C16.4687 9.57272 15.993 10.1523 15.7122 10.8304C15.4313 11.5085 15.3578 12.2546 15.501 12.9745C15.6442 13.6943 15.9976 14.3555 16.5166 14.8745C17.0356 15.3935 17.6968 15.7469 18.4167 15.8901C19.1365 16.0333 19.8827 15.9598 20.5607 15.6789C21.2388 15.3981 21.8184 14.9224 22.2262 14.3122C22.6339 13.7019 22.8516 12.9844 22.8516 12.2505C22.8516 11.2663 22.4606 10.3224 21.7647 9.62646C21.0687 8.93052 20.1248 8.53955 19.1406 8.53955ZM15.8203 18.3052V15.8267C14.9653 15.0287 14.4251 13.9505 14.2979 12.7879C14.1707 11.6254 14.465 10.4558 15.1273 9.49193C15.7895 8.52802 16.7757 7.83382 17.9065 7.53556C19.0373 7.2373 20.2376 7.3548 21.2891 7.8667V5.60986C21.2891 5.55806 21.2685 5.50838 21.2319 5.47176C21.1952 5.43513 21.1455 5.41455 21.0938 5.41455H3.90625C3.85445 5.41455 3.80477 5.43513 3.76814 5.47176C3.73151 5.50838 3.71094 5.55806 3.71094 5.60986V18.1099C3.71094 18.1617 3.73151 18.2113 3.76814 18.248C3.80477 18.2846 3.85445 18.3052 3.90625 18.3052H15.8203ZM21.2891 16.6343C20.6205 16.9626 19.8855 17.1333 19.1406 17.1333C18.3958 17.1333 17.6608 16.9626 16.9922 16.6343V21.0063L18.8477 19.9448C18.9367 19.8934 19.0378 19.8663 19.1406 19.8663C19.2435 19.8663 19.3445 19.8934 19.4336 19.9448L21.2891 21.0063V16.6343Z" fill="#1889B8"/>
</svg>
