<svg width="25" height="26" viewBox="0 0 25 26" fill="none" xmlns="http://www.w3.org/2000/svg">
<path d="M2.08301 2.22437L5.20801 5.34937L6.77051 9.51603L10.4163 11.5994L16.6663 13.6827L17.708 17.8494L20.3122 20.9744M11.458 8.47436L16.1455 10.0369M19.7913 12.641C19.7913 12.9173 19.9011 13.1823 20.0964 13.3776C20.2918 13.573 20.5567 13.6827 20.833 13.6827C21.1093 13.6827 21.3742 13.573 21.5696 13.3776C21.7649 13.1823 21.8747 12.9173 21.8747 12.641C21.8747 12.3648 21.7649 12.0998 21.5696 11.9045C21.3742 11.7091 21.1093 11.5994 20.833 11.5994C20.5567 11.5994 20.2918 11.7091 20.0964 11.9045C19.9011 12.0998 19.7913 12.3648 19.7913 12.641Z" stroke="#1889B8" stroke-width="2" stroke-linecap="round" stroke-linejoin="round"/>
</svg>
