<svg width="25" height="26" viewBox="0 0 25 26" fill="none" xmlns="http://www.w3.org/2000/svg">
<path d="M16.6667 18.7869C18.2292 17.8494 19.4792 16.4952 20.2083 14.7244H21.0417C21.4583 14.7244 21.875 14.3077 21.875 13.6827V9.51603C21.875 8.89103 21.4583 8.47436 21.0417 8.47436H20.2083C19.7934 7.44053 19.1734 6.50144 18.3856 5.71372C17.5979 4.926 16.6588 4.30598 15.625 3.89103V3.0577C15.625 2.64103 15.2083 2.22437 14.5833 2.22437H10.4167C9.79167 2.22437 9.375 2.64103 9.375 3.0577V3.89103C8.34116 4.30598 7.40207 4.926 6.61436 5.71372C5.82664 6.50144 5.20661 7.44053 4.79167 8.47436H3.95833C3.54167 8.47436 3.125 8.89103 3.125 9.51603V13.6827C3.125 14.3077 3.54167 14.7244 3.95833 14.7244H4.79167C5.52083 16.4952 6.77083 17.8494 8.33333 18.7869" stroke="#1889B8" stroke-width="1.5" stroke-linecap="round" stroke-linejoin="round"/>
<path d="M12.4997 15.766C14.8009 15.766 16.6663 13.9005 16.6663 11.5993C16.6663 9.2981 14.8009 7.43262 12.4997 7.43262C10.1985 7.43262 8.33301 9.2981 8.33301 11.5993C8.33301 13.9005 10.1985 15.766 12.4997 15.766Z" stroke="#1889B8" stroke-width="1.5" stroke-linecap="round" stroke-linejoin="round"/>
<path d="M8.33301 11.5993H16.6663M12.4997 7.43262V15.766M6.97884 17.8493C5.93717 18.4743 5.20801 19.0993 5.20801 19.9326C5.20801 21.7035 8.43717 23.0576 12.4997 23.0576C16.5622 23.0576 19.7913 21.7035 19.7913 19.9326C19.7913 19.0993 19.0622 18.4743 18.0205 17.8493" stroke="#1889B8" stroke-width="1.5" stroke-linecap="round" stroke-linejoin="round"/>
</svg>
