<svg width="276" height="196" viewBox="0 0 276 196" fill="none" xmlns="http://www.w3.org/2000/svg">
<mask id="mask0_1203_15616" style="mask-type:alpha" maskUnits="userSpaceOnUse" x="0" y="0" width="276" height="196">
<rect x="0.5" y="0.447266" width="275" height="194.755" fill="url(#paint0_linear_1203_15616)"/>
</mask>
<g mask="url(#mask0_1203_15616)">
<mask id="mask1_1203_15616" style="mask-type:luminance" maskUnits="userSpaceOnUse" x="1" y="21" width="272" height="181">
<path d="M272.588 21.8125H1.8877V201.813H272.588V21.8125Z" fill="white"/>
</mask>
<g mask="url(#mask1_1203_15616)">
<path d="M3.27002 183.654C3.27002 183.654 -2.31346 147.202 39.8697 137.934C82.053 128.667 91.3596 137.317 100.664 99.0102C109.968 60.7035 136.022 13.7498 227.213 49.5843C318.404 85.4189 235.485 201.991 235.485 201.991L3.27002 183.654Z" fill="url(#paint1_linear_1203_15616)"/>
<path d="M37.6388 181.445C30.4139 190.8 19.5727 156.977 54.9812 149.779C90.3896 142.583 128.959 148.667 145.307 106.598C161.654 64.5284 200.947 41.1085 231.297 82.1299C261.647 123.151 244.304 188.64 244.304 188.64L37.6413 181.445H37.6388Z" fill="url(#paint2_linear_1203_15616)"/>
<path d="M205.742 80.2468C205.734 80.2716 205.737 80.2963 205.757 80.3186C205.772 80.3335 205.791 80.3484 205.821 80.3657C205.916 80.4103 206.01 80.4375 206.1 80.4573C206.336 80.5094 206.418 80.8016 206.234 80.9577C206.167 81.0122 206.092 81.0716 206.008 81.1311C205.978 81.1509 205.943 81.1732 205.911 81.1955C205.906 81.2004 205.898 81.2029 205.891 81.2079C205.851 81.2326 205.809 81.2599 205.764 81.2871C205.759 81.2896 205.752 81.2946 205.747 81.297C205.707 81.3193 205.667 81.3416 205.625 81.3664C205.478 81.4457 205.311 81.5249 205.125 81.6017C205.093 81.6141 205.063 81.6265 205.028 81.6389C204.931 81.676 204.829 81.7107 204.719 81.7479C204.647 81.7702 204.573 81.7949 204.496 81.8172C204.456 81.8296 204.421 81.837 204.381 81.8494C204.339 81.8618 204.297 81.8742 204.254 81.8816C204.13 81.9138 204.001 81.9435 203.864 81.9733C203.819 81.9832 203.772 81.9906 203.725 82.0005C203.222 82.0996 202.635 82.1689 201.954 82.2011C201.874 82.2061 201.792 82.2086 201.708 82.2111C201.708 82.2111 198.442 82.4662 194.657 81.2698C192.697 80.6506 191.986 80.3583 191.488 80.44C191.023 80.5143 190.747 80.9106 189.819 81.6587C187.899 83.2068 186.459 84.2149 184.666 83.9425C184.666 83.9425 189.344 81.9287 187.979 79.8505C186.614 77.7723 183.032 77.0143 183.032 77.0143C183.032 77.0143 186.226 76.6948 189.571 77.8689C191.322 78.4832 192.222 78.5674 192.685 78.508C193.08 78.4559 193.155 78.2999 193.16 78.2801L191.62 77.2819C191.62 77.2819 193.202 73.8562 197.825 75.2705C197.825 75.2705 200.071 74.1955 202.215 75.9492L202.217 75.9542C202.217 75.9542 202.218 75.9542 202.22 75.9542C202.24 75.974 202.267 75.9938 202.29 76.0136C202.29 76.0136 204.429 76.1499 205.724 77.2843C205.774 77.3289 205.824 77.3735 205.871 77.4206C205.898 77.4478 205.926 77.4751 205.951 77.5023C206.137 77.7005 206.299 77.9259 206.421 78.181C206.438 78.2157 206.453 78.2528 206.47 78.29C206.488 78.3296 206.503 78.3668 206.518 78.4039C206.53 78.4436 206.545 78.4807 206.557 78.5228C206.57 78.5625 206.582 78.6021 206.592 78.6417C206.602 78.6838 206.612 78.7235 206.622 78.7656C206.632 78.8077 206.64 78.8523 206.647 78.8944C206.652 78.9266 206.657 78.9612 206.662 78.9934C206.667 79.0182 206.669 79.0455 206.672 79.0727C206.677 79.1123 206.679 79.152 206.684 79.1941C206.684 79.2189 206.684 79.2411 206.687 79.2659C206.689 79.2907 206.689 79.3179 206.687 79.3452C206.677 79.5904 206.525 79.8109 206.294 79.9075C206.291 79.9075 206.286 79.9099 206.284 79.9124C206.237 79.9297 206.187 79.952 206.137 79.9719C206.12 79.9793 206.105 79.9867 206.09 79.9942C205.998 80.0363 205.913 80.0808 205.849 80.123C205.839 80.1304 205.829 80.1378 205.819 80.1452C205.809 80.1502 205.801 80.1576 205.794 80.1651C205.779 80.1799 205.767 80.1923 205.754 80.2047C205.742 80.2196 205.737 80.2319 205.732 80.2443L205.742 80.2468Z" fill="#FFD028"/>
<path d="M193.341 80.2622C193.341 80.2622 192.087 81.9342 192.535 82.6599C192.983 83.3832 196.539 82.9547 197.604 81.5849C198.668 80.2151 193.341 80.2647 193.341 80.2647V80.2622Z" fill="#FFD028"/>
<path d="M205.742 80.247C205.735 80.2718 205.737 80.2965 205.757 80.3188C205.772 80.3337 205.792 80.3486 205.822 80.3659C205.916 80.4105 206.011 80.4377 206.1 80.4575C206.336 80.5096 206.419 80.8018 206.235 80.9579C206.167 81.0124 206.093 81.0718 206.008 81.1313C205.978 81.1511 205.944 81.1734 205.911 81.1957C205.906 81.2006 205.899 81.2031 205.891 81.2081C205.852 81.2328 205.809 81.2601 205.764 81.2873C205.76 81.2898 205.752 81.2948 205.747 81.2972C205.707 81.3195 205.667 81.3418 205.625 81.3666C205.478 81.4459 205.312 81.5251 205.125 81.6019C205.093 81.6143 205.063 81.6267 205.028 81.6391C204.931 81.6762 204.829 81.7134 204.72 81.7481C204.648 81.7704 204.573 81.7951 204.496 81.8174C204.456 81.8298 204.421 81.8372 204.382 81.8496C204.339 81.862 204.297 81.8744 204.255 81.8818C204.13 81.914 204.001 81.9437 203.864 81.9735C203.82 81.9834 203.772 81.9908 203.725 82.0007C203.223 82.0998 202.636 82.1691 201.954 82.2013C201.875 82.2063 201.793 82.2088 201.708 82.2113C201.708 82.2113 198.443 82.4664 194.657 81.27C192.697 80.6508 191.986 80.3585 191.489 80.4402C191.001 79.8581 191.27 79.2339 192.685 78.5082C192.832 78.4314 192.988 78.3571 193.16 78.2803C196.289 76.8733 200.069 76.2244 202.213 75.9494L202.215 75.9544C202.215 75.9544 202.216 75.9544 202.218 75.9544L202.203 75.9346C202.203 75.9346 202.205 75.9346 202.21 75.9395C202.21 75.9395 204.407 76.1129 205.725 77.2845C205.774 77.3291 205.824 77.3737 205.871 77.4208C205.899 77.448 205.926 77.4753 205.951 77.5025C206.138 77.7031 206.297 77.9285 206.421 78.1812C206.438 78.2159 206.453 78.253 206.471 78.2902C206.488 78.3298 206.503 78.367 206.518 78.4041C206.531 78.4438 206.545 78.4809 206.558 78.523C206.57 78.5627 206.583 78.6023 206.593 78.6419C206.603 78.684 206.613 78.7237 206.623 78.7658C206.632 78.8079 206.64 78.8525 206.647 78.8946C206.652 78.9268 206.657 78.9615 206.662 78.9937C206.667 79.0184 206.67 79.0457 206.672 79.0729C206.677 79.1125 206.68 79.1522 206.685 79.1943C206.685 79.2191 206.685 79.2413 206.687 79.2661C206.687 79.2785 206.69 79.2909 206.687 79.3033C206.687 79.3181 206.687 79.333 206.687 79.3479C206.677 79.5931 206.526 79.8135 206.294 79.9101C206.292 79.9101 206.287 79.9126 206.284 79.9151C206.237 79.9324 206.187 79.9547 206.138 79.9745C206.12 79.982 206.105 79.9894 206.09 79.9968C205.998 80.0389 205.914 80.0835 205.849 80.1256C205.839 80.1331 205.829 80.1405 205.819 80.1479C205.809 80.1529 205.802 80.1603 205.794 80.1677C205.777 80.1801 205.764 80.1925 205.755 80.2074C205.742 80.2222 205.737 80.2346 205.732 80.247H205.742Z" fill="#E36C4D"/>
<path d="M201.282 80.1154C201.282 80.1154 202.513 80.7867 200.404 81.1409C198.295 81.4976 197.8 82.0847 197.539 83.9127L198.402 83.5882L198.203 84.9505C198.203 84.9505 200.767 84.8044 201.128 83.3009C201.489 81.7998 202.113 80.6629 202.113 80.6629C202.113 80.6629 202.411 80.0535 201.282 80.113V80.1154Z" fill="#FFD028"/>
<path d="M204.448 79.1398C204.384 79.4098 204.55 79.6823 204.824 79.7467C205.095 79.8111 205.369 79.6451 205.433 79.3727C205.498 79.1027 205.331 78.8302 205.058 78.7658C204.787 78.7014 204.513 78.8674 204.448 79.1398Z" fill="#192D52"/>
<path d="M202.282 76.6952C202.282 76.6952 194.219 77.6241 194.12 79.0359C194.023 80.4478 204.036 78.8031 204.237 77.9386C204.439 77.0717 202.787 76.5911 202.28 76.6952H202.282Z" fill="#F27352"/>
<path d="M191.103 96.1219C191.103 96.1219 191.103 96.1442 191.11 96.1541C191.118 96.1616 191.125 96.169 191.14 96.1764C191.183 96.1962 191.227 96.2086 191.267 96.2185C191.377 96.2408 191.414 96.3771 191.329 96.4489C191.299 96.4737 191.265 96.5009 191.225 96.5282C191.21 96.5381 191.195 96.548 191.18 96.5579C191.178 96.5579 191.175 96.5628 191.173 96.5628C191.155 96.5752 191.135 96.5876 191.115 96.6C191.113 96.6 191.11 96.6025 191.108 96.6049C191.091 96.6148 191.071 96.6247 191.051 96.6371C190.984 96.6743 190.907 96.709 190.822 96.7436C190.807 96.7486 190.792 96.756 190.777 96.761C190.732 96.7783 190.685 96.7932 190.635 96.8105C190.603 96.8204 190.568 96.8328 190.533 96.8427C190.516 96.8477 190.499 96.8526 190.481 96.8576C190.461 96.8625 190.441 96.8675 190.424 96.8725C190.367 96.8873 190.307 96.9022 190.245 96.9146C190.225 96.9195 190.203 96.922 190.18 96.9269C189.949 96.9715 189.68 97.0037 189.367 97.0186C189.33 97.0186 189.292 97.0236 189.255 97.0236C189.255 97.0236 187.755 97.14 186.017 96.5925C185.117 96.3077 184.791 96.1739 184.562 96.2111C184.348 96.2458 184.221 96.4266 183.796 96.7709C182.916 97.4818 182.254 97.945 181.431 97.8187C181.431 97.8187 183.58 96.8947 182.95 95.9411C182.324 94.9875 180.68 94.6382 180.68 94.6382C180.68 94.6382 182.147 94.4921 183.682 95.0321C184.485 95.3144 184.898 95.3516 185.112 95.3243C185.293 95.2996 185.328 95.2277 185.331 95.2203L184.624 94.7621C184.624 94.7621 185.35 93.1892 187.474 93.8381C187.474 93.8381 188.506 93.3452 189.489 94.1502C189.489 94.1502 189.511 94.1676 189.521 94.1775C189.521 94.1775 190.504 94.2394 191.098 94.7596C191.12 94.7794 191.143 94.8017 191.165 94.8215C191.178 94.8339 191.19 94.8463 191.202 94.8587C191.29 94.9503 191.362 95.0543 191.419 95.1708C191.426 95.1881 191.434 95.203 191.441 95.2203C191.449 95.2376 191.456 95.255 191.464 95.2723C191.469 95.2897 191.476 95.307 191.484 95.3268C191.488 95.3442 191.493 95.364 191.501 95.3813C191.506 95.4011 191.511 95.4185 191.513 95.4383C191.518 95.4581 191.521 95.4779 191.526 95.4977C191.528 95.5126 191.531 95.5274 191.533 95.5423C191.533 95.5547 191.536 95.5671 191.538 95.5795C191.541 95.5968 191.541 95.6166 191.543 95.6364C191.543 95.6463 191.543 95.6587 191.543 95.6686C191.543 95.681 191.543 95.6934 191.543 95.7058C191.538 95.8197 191.469 95.9213 191.362 95.9634C191.362 95.9634 191.359 95.9634 191.357 95.9634C191.334 95.9708 191.312 95.9807 191.29 95.9906C191.282 95.9931 191.275 95.9981 191.267 96.0006C191.225 96.0204 191.185 96.0402 191.158 96.06C191.153 96.0625 191.148 96.0674 191.143 96.0699C191.138 96.0699 191.135 96.0749 191.13 96.0798C191.123 96.0872 191.118 96.0922 191.113 96.0972C191.108 96.1046 191.105 96.1095 191.103 96.1145V96.1219Z" fill="#FFD028"/>
<path d="M185.41 96.1266C185.41 96.1266 184.836 96.8944 185.04 97.2263C185.246 97.5583 186.878 97.3601 187.368 96.7334C187.858 96.1043 185.41 96.1266 185.41 96.1266Z" fill="#FFD028"/>
<path d="M191.103 96.1217C191.103 96.1217 191.103 96.144 191.11 96.1539C191.118 96.1614 191.125 96.1688 191.14 96.1762C191.182 96.196 191.227 96.2084 191.267 96.2183C191.376 96.2406 191.414 96.3769 191.329 96.4487C191.299 96.4735 191.264 96.5007 191.225 96.528C191.21 96.5379 191.195 96.5478 191.18 96.5577C191.177 96.5577 191.175 96.5626 191.172 96.5626C191.155 96.575 191.135 96.5874 191.115 96.5998C191.113 96.5998 191.11 96.6023 191.108 96.6047C191.09 96.6146 191.07 96.6246 191.05 96.6369C190.983 96.6741 190.906 96.7088 190.822 96.7435C190.807 96.7484 190.792 96.7558 190.777 96.7608C190.732 96.7781 190.685 96.7955 190.635 96.8103C190.603 96.8202 190.568 96.8326 190.533 96.8425C190.516 96.8475 190.498 96.8524 190.481 96.8574C190.461 96.8623 190.441 96.8673 190.424 96.8723C190.366 96.8871 190.307 96.902 190.245 96.9144C190.225 96.9193 190.202 96.9218 190.18 96.9267C189.949 96.9713 189.68 97.0035 189.367 97.0184C189.329 97.0184 189.292 97.0234 189.255 97.0234C189.255 97.0234 187.755 97.1398 186.017 96.5924C185.116 96.3075 184.79 96.1737 184.562 96.2109C184.338 95.9434 184.462 95.6561 185.111 95.3241C185.178 95.2895 185.251 95.2548 185.33 95.2201C186.765 94.5736 188.501 94.2764 189.486 94.15C189.486 94.15 189.479 94.1426 189.479 94.1401C189.479 94.1401 189.479 94.1401 189.481 94.1401C189.481 94.1401 190.488 94.2194 191.095 94.7569C191.118 94.7767 191.14 94.799 191.162 94.8188C191.175 94.8312 191.187 94.8436 191.2 94.856C191.284 94.9476 191.359 95.0517 191.416 95.1681C191.423 95.1854 191.431 95.2003 191.438 95.2176C191.446 95.235 191.453 95.2523 191.461 95.2696C191.466 95.287 191.473 95.3043 191.481 95.3241C191.486 95.3415 191.491 95.3613 191.498 95.3786C191.503 95.3984 191.508 95.4158 191.511 95.4356C191.516 95.4554 191.518 95.4752 191.523 95.495C191.525 95.5099 191.528 95.5248 191.53 95.5396C191.53 95.552 191.533 95.5644 191.535 95.5768C191.538 95.5941 191.538 95.6139 191.54 95.6338C191.54 95.6437 191.54 95.6561 191.54 95.666C191.54 95.6709 191.54 95.6759 191.54 95.6833C191.54 95.6907 191.54 95.6957 191.54 95.7031C191.535 95.8171 191.466 95.9186 191.359 95.9607C191.359 95.9607 191.356 95.9607 191.354 95.9607C191.331 95.9682 191.309 95.9781 191.287 95.988C191.279 95.9904 191.272 95.9954 191.264 95.9979C191.222 96.0177 191.182 96.0375 191.155 96.0573C191.15 96.0598 191.145 96.0648 191.14 96.0672C191.135 96.0672 191.133 96.0722 191.128 96.0771C191.12 96.0821 191.113 96.0895 191.11 96.0945C191.105 96.1019 191.103 96.1069 191.1 96.1118L191.103 96.1217Z" fill="#E36C4D"/>
<path d="M189.056 96.06C189.056 96.06 189.621 96.3671 188.654 96.5306C187.686 96.6941 187.457 96.9641 187.338 97.8038L187.733 97.6552L187.641 98.2818C187.641 98.2818 188.82 98.215 188.984 97.5239C189.148 96.8353 189.437 96.3126 189.437 96.3126C189.437 96.3126 189.574 96.0327 189.056 96.06Z" fill="#FFD028"/>
<path d="M190.511 95.6119C190.481 95.7357 190.559 95.8621 190.683 95.8918C190.807 95.9215 190.934 95.8447 190.964 95.7209C190.994 95.597 190.917 95.4707 190.792 95.441C190.668 95.4112 190.541 95.488 190.511 95.6119Z" fill="#192D52"/>
<path d="M189.517 94.4898C189.517 94.4898 185.816 94.9158 185.769 95.5648C185.724 96.2138 190.323 95.4583 190.415 95.0595C190.507 94.6607 189.748 94.4403 189.517 94.4898Z" fill="#F27352"/>
<path d="M198.745 47.5857C198.852 47.6946 198.768 47.8755 198.614 47.8656C198.034 47.8235 197.067 47.9597 195.756 48.839C195.42 49.0644 195.065 49.3369 194.684 49.6688C194.264 50.0354 193.483 51.8386 193.01 52.3588C189.225 56.5251 181.59 51.3234 177.272 53.8376C172.957 56.3517 169.438 58.0039 167.645 54.9621C165.851 51.9204 170.301 46.6964 170.301 46.6964C170.301 46.6964 170.258 46.6939 170.184 46.6964C169.866 46.7014 168.945 46.7757 167.96 47.3603C167.398 47.6946 166.819 48.195 166.316 48.9431C166.316 48.9431 166.108 45.2276 165.553 40.5708C165.536 40.4173 166.548 43.2608 168.667 43.8727C169.057 43.9841 169.485 44.0213 169.953 43.947C169.968 43.947 169.982 43.942 170 43.9395C170 43.9395 168.097 38.1706 168.097 37.913C168.097 37.6554 168.973 33.7319 176.608 33.2018C184.126 32.6816 189.521 38.1211 192.281 40.878L192.411 41.0068C193.893 42.4831 194.687 43.999 195.649 45.0616C196.4 45.8939 197.253 46.4487 198.621 46.4933C198.75 46.4983 198.825 46.6395 198.755 46.746L198.541 47.0804C198.474 47.1869 198.487 47.3256 198.576 47.4147L198.743 47.5857H198.745Z" fill="#FFD028"/>
<path d="M199.227 48.0409L199.089 47.9844C199.168 48.0114 199.215 48.0336 199.227 48.0409Z" fill="#FFD028"/>
<path d="M193.58 47.6029C193.026 53.5601 181.916 54.328 176.638 53.1217C176.492 53.087 176.347 53.0548 176.206 53.0152C175.275 52.7675 174.495 52.3191 173.84 51.7519C170.913 49.2229 170.485 44.3284 170.485 44.3284C170.831 43.3623 171.229 42.5028 171.669 41.7449C174.574 36.7636 179.444 36.0329 184.706 37.4547C185.278 37.6108 185.853 37.7866 186.427 37.9898C193.15 40.3404 193.598 47.3775 193.578 47.6029H193.58Z" fill="#3E66B0"/>
<path d="M195.756 48.839C195.42 49.0644 195.064 49.3368 194.684 49.6688C195.368 46.5304 193.846 43.7488 192.709 41.7176C192.54 41.4154 192.398 41.1355 192.281 40.8779L192.411 41.0067C193.893 42.483 194.686 43.9989 195.649 45.0616C195.905 46.4016 195.88 47.7218 195.753 48.839H195.756Z" fill="#192D52"/>
<path d="M170.162 46.7214C169.844 46.7264 168.923 46.8007 167.938 47.3853C167.991 47.2713 168.055 47.145 168.135 47.0038C168.901 45.634 168.841 44.5689 168.645 43.9002C169.035 44.0116 169.503 43.9546 169.97 43.8828C171.669 44.4055 171.271 46.3127 170.159 46.7214H170.162Z" fill="#192D52"/>
<path d="M176.638 53.1217C176.504 53.9812 174.612 54.8655 173.55 54.2413C172.398 53.5626 173.545 52.0963 173.841 51.752C174.495 52.3192 175.278 52.7675 176.206 53.0152C176.345 53.0524 176.489 53.087 176.638 53.1217Z" fill="#192D52"/>
<path d="M184.706 37.4572C184.512 37.5291 184.241 37.586 183.885 37.6281C179.657 38.1211 173.402 44.6182 171.918 42.6019C171.918 42.5994 171.915 42.597 171.913 42.5945C171.652 42.2353 171.659 41.7449 171.898 41.3709C174.825 36.729 179.578 36.0701 184.706 37.4572Z" fill="#192D52"/>
<path d="M194.948 46.1612C194.948 46.4832 194.734 46.7433 194.468 46.7433C194.202 46.7433 193.988 46.4832 193.988 46.1612C193.988 45.8392 194.202 45.5791 194.468 45.5791C194.734 45.5791 194.948 45.8392 194.948 46.1612Z" fill="#192D52"/>
<path d="M185.041 39.0995C181.895 39.3125 175.407 41.4848 176.483 46.31C177.56 51.1352 190.657 52.5644 192.361 48.1851C194.065 43.8083 188.091 38.8939 185.041 39.0995Z" fill="#4775C9"/>
<path d="M64.6656 144.836C64.7476 144.92 64.683 145.057 64.5661 145.049C64.1234 145.017 63.3847 145.121 62.3824 145.792C62.1263 145.963 61.8527 146.171 61.5642 146.426C61.2433 146.706 60.6465 148.083 60.2858 148.482C57.3934 151.665 51.5612 147.692 48.2608 149.612C44.963 151.531 42.2745 152.795 40.9041 150.471C39.5337 148.148 42.9335 144.155 42.9335 144.155C42.9335 144.155 42.9012 144.155 42.844 144.155C42.6003 144.16 41.8964 144.214 41.1453 144.663C40.7176 144.918 40.2724 145.299 39.8894 145.874C39.8894 145.874 39.7302 143.035 39.3049 139.478C39.29 139.362 40.0659 141.534 41.6825 142C41.981 142.084 42.3068 142.114 42.6649 142.057C42.6774 142.057 42.6873 142.054 42.6998 142.052C42.6998 142.052 41.2473 137.645 41.2473 137.447C41.2473 137.249 41.9163 134.252 47.751 133.848C53.4936 133.452 57.6172 137.606 59.7262 139.714L59.8257 139.813C60.9573 140.94 61.5642 142.099 62.3004 142.912C62.8724 143.548 63.5265 143.972 64.571 144.006C64.6705 144.009 64.7277 144.118 64.6755 144.2L64.5114 144.455C64.4591 144.536 64.4691 144.64 64.5362 144.71L64.6631 144.841L64.6656 144.836Z" fill="#FFD028"/>
<path d="M65.0351 145.185L64.9297 145.141C64.991 145.16 65.0253 145.18 65.0351 145.185Z" fill="#FFD028"/>
<path d="M60.718 144.848C60.2927 149.401 51.8044 149.986 47.7728 149.064C47.6609 149.04 47.549 149.012 47.442 148.983C46.7332 148.794 46.1363 148.45 45.6339 148.017C43.3981 146.084 43.0723 142.344 43.0723 142.344C43.3359 141.606 43.6393 140.95 43.9776 140.37C46.196 136.563 49.9167 136.006 53.9383 137.093C54.376 137.212 54.8137 137.346 55.2539 137.502C60.3897 139.298 60.733 144.675 60.718 144.846V144.848Z" fill="#3E66B0"/>
<path d="M62.3822 145.792C62.1261 145.963 61.8525 146.171 61.564 146.426C62.0863 144.028 60.9248 141.903 60.0543 140.35C59.925 140.12 59.8181 139.907 59.7285 139.708L59.828 139.808C60.9596 140.935 61.5665 142.094 62.3026 142.906C62.4966 143.929 62.4792 144.94 62.3822 145.792Z" fill="#192D52"/>
<path d="M42.8266 144.175C42.5829 144.18 41.879 144.234 41.1279 144.683C41.1677 144.596 41.2175 144.499 41.2772 144.39C41.8616 143.342 41.8168 142.53 41.6676 142.017C41.9661 142.101 42.3242 142.059 42.6823 142.005C43.9806 142.404 43.6772 143.863 42.8266 144.175Z" fill="#192D52"/>
<path d="M47.7755 149.064C47.6735 149.72 46.2285 150.396 45.4153 149.921C44.5348 149.403 45.4128 148.281 45.6391 148.019C46.139 148.452 46.7359 148.796 47.4472 148.985C47.5541 149.014 47.6636 149.039 47.778 149.066L47.7755 149.064Z" fill="#192D52"/>
<path d="M53.9412 137.095C53.792 137.15 53.5856 137.194 53.3145 137.226C50.0838 137.603 45.3061 142.567 44.1695 141.026C44.1695 141.026 44.167 141.021 44.1646 141.021C43.9656 140.746 43.9706 140.372 44.1521 140.087C46.388 136.54 50.0216 136.038 53.9387 137.098L53.9412 137.095Z" fill="#192D52"/>
<path d="M61.7654 143.746C61.7654 143.991 61.6012 144.19 61.3998 144.19C61.1983 144.19 61.0342 143.991 61.0342 143.746C61.0342 143.501 61.1983 143.303 61.3998 143.303C61.6012 143.303 61.7654 143.501 61.7654 143.746Z" fill="#192D52"/>
<path d="M54.1971 138.351C51.7921 138.512 46.8354 140.174 47.6586 143.86C48.4818 147.546 58.4873 148.638 59.7905 145.294C61.0937 141.95 56.5275 138.195 54.1996 138.351H54.1971Z" fill="#4775C9"/>
<path d="M217.198 177.938C217.198 177.938 213.965 182.912 210.443 185.101C210.443 185.101 191.591 185.064 179.427 169.065C177.984 167.17 175.365 163.244 172.995 159.375C171.01 156.135 169.202 152.938 168.401 151.01C165.8 144.739 164.977 138.264 165.434 132.678C166.101 124.44 169.541 118.136 174.144 117.247C174.144 117.247 177.681 120.712 181.384 126.127C183.162 128.727 184.978 131.782 186.46 135.116C187.087 136.527 187.656 137.991 188.134 139.492C192.098 151.917 194.446 165.511 207.652 172.09L217.195 177.935L217.198 177.938Z" fill="#143A80"/>
<path d="M186.46 135.118C185.508 138.72 183.874 143.263 181.322 147.733C178.999 151.803 175.848 155.955 172.995 159.375C171.01 156.135 169.202 152.938 168.401 151.011C165.8 144.739 164.977 138.264 165.434 132.678C169.891 128.896 175.505 125.678 181.384 126.129C183.162 128.73 184.978 131.784 186.46 135.118Z" fill="#FFD028"/>
<path d="M106.684 139.069C106.848 138.395 106.023 102.89 142.789 104.864C179.555 106.838 181.498 130.345 179.297 138.239C177.096 146.133 161.502 153.103 152.476 175.906C143.451 198.71 95.0149 186.87 106.684 139.071V139.069Z" fill="#143A80"/>
<path d="M173.039 151.501C177.839 145.098 183.622 135.349 183.699 125.458C183.714 123.712 183.149 122.012 182.127 120.593C178.667 115.805 169.537 104.557 161.004 105.917C161.004 105.917 165.369 133.456 142.906 155.008C141.309 156.539 138.648 155.506 138.531 153.302L136.116 107.019C136.116 107.019 119.517 101.498 108.816 109.647C98.1137 117.799 95.1142 203.562 123.129 201.37C142.038 199.889 155.267 181.074 161.867 168.998C165.19 162.92 168.881 157.047 173.037 151.501H173.039Z" fill="#192D52"/>
<path d="M167.244 87.9363C167.244 87.9363 173.201 75.5093 164.339 68.2121C155.48 60.9149 145.094 64.348 142.197 57.9004C142.197 57.9004 140.377 59.882 142.416 63.1714C142.416 63.1714 135.713 65.8812 131.828 58.5271C131.828 58.5271 125.417 61.6233 131.149 69.6512C131.149 69.6512 122.795 66.9414 126.583 59.4931C126.583 59.4931 118.326 66.1686 128.138 73.5203L124.156 73.1339C124.156 73.1339 126.553 74.2881 126.882 79.4328C127.13 83.3192 122.989 87.6441 130.955 91.9986C138.922 96.3507 167.244 87.9363 167.244 87.9363Z" fill="#192D52"/>
<path d="M166.248 87.3566C166.248 84.7854 162.253 72.3262 155.518 76.2151C153.009 77.6641 150.457 77.5774 147.659 77.1217C133.063 74.7561 128.322 83.5247 128.322 86.9825C128.322 90.4404 136.913 90.8417 147.94 90.8417C158.968 90.8417 166.248 90.8144 166.248 87.3541V87.3566Z" fill="#F38467"/>
<path d="M131.617 103.725C131.617 103.725 132.886 123.142 143.038 124.866C153.19 126.59 161.957 121.19 163.919 104.413C165.882 87.6367 134.731 85.1102 131.617 103.725Z" fill="#F38467"/>
<path d="M146.804 91.2378C156.137 91.2378 163.704 88.8635 163.704 85.9346C163.704 83.0057 156.137 80.6313 146.804 80.6313C137.471 80.6313 129.904 83.0057 129.904 85.9346C129.904 88.8635 137.471 91.2378 146.804 91.2378Z" fill="#DEEBFF"/>
<path d="M146.706 92.4839C156.04 92.4839 163.606 90.1096 163.606 87.1807C163.606 84.2518 156.04 81.8774 146.706 81.8774C137.373 81.8774 129.807 84.2518 129.807 87.1807C129.807 90.1096 137.373 92.4839 146.706 92.4839Z" fill="#A3C6FF"/>
<path d="M141.747 122.081L140.163 117.514C139.83 116.553 140.247 115.498 141.15 115.022C143.699 113.682 149.044 111.71 154.212 115.104C154.911 115.565 155.267 116.399 155.108 117.219L154.292 121.398L141.747 122.079V122.081Z" fill="#192D52"/>
<path d="M101.275 139.441C89.1236 138.497 80.2074 134.031 74.7732 126.169C67.3667 115.453 69.3414 102.333 79.8045 92.7444C86.0869 86.9854 94.3564 83.5349 103.088 83.0271C112.965 82.4525 122.562 85.7122 130.837 92.4546L129.001 94.6888C121.301 88.4146 112.395 85.3778 103.258 85.9104C95.3089 86.3711 87.4746 89.6382 81.7668 94.8696C77.3746 98.8947 74.5419 103.705 73.5794 108.778C72.5472 114.203 73.7858 119.652 77.1608 124.534C82.0752 131.645 90.2651 135.693 101.499 136.565L101.275 139.443V139.441Z" fill="#19489E"/>
<path d="M126.713 135.704C119.167 137.393 110.067 138.674 101.387 138Z" fill="#19489E"/>
<path d="M106.304 139.628C104.578 139.628 102.902 139.566 101.275 139.44L101.499 136.561C108.784 137.129 117.158 136.366 126.392 134.297L127.029 137.114C119.555 138.788 112.606 139.63 106.302 139.63L106.304 139.628Z" fill="#19489E"/>
<path d="M127.031 137.112L126.395 134.295C135.95 132.155 142.695 129.431 143.16 129.19C143.145 129.198 143.016 129.267 142.876 129.406L144.926 131.447C144.117 132.252 135.152 135.294 127.031 137.112Z" fill="#A3C6FF"/>
<path d="M92.1799 146.569C92.1799 146.569 73.1339 157.698 73.5144 171.195C73.8949 184.69 90.3419 184.848 103.901 154.173C103.901 154.173 95.2066 154.602 92.1799 146.569Z" fill="#143A80"/>
<path d="M131.013 119.53C129.785 117.541 125.062 120.008 124.87 120.105C124.897 119.996 125.315 118.445 124.723 116.132C124.112 113.737 120.5 109.692 116.548 109.139C112.701 108.599 110.306 114.648 110.174 114.973C110.186 114.695 110.445 110.212 113.057 103.97C115.75 97.5347 116.282 88.5011 113.203 88.241C110.119 87.9785 111.92 88.9693 109.376 97.453C106.889 105.741 105.125 113.531 105.041 113.893C105.041 113.672 105.09 110.001 105.767 104.294C106.461 98.4115 106.19 86.5963 103.509 89.1724C100.823 91.7509 99.8925 115.726 99.8925 115.726C97.9128 104.562 94.309 98.5849 92.8118 99.7566C91.3195 100.931 95.3212 121.599 95.3212 121.599C95.3212 121.599 94.5776 130.11 95.7938 136.832C97.0124 143.555 92.1776 146.569 92.1776 146.569C89.6731 154.359 103.899 154.173 103.899 154.173C103.899 154.173 110.91 148.925 115.394 141.412C119.874 133.899 124.902 131.269 127.71 126.605C130.513 121.943 132.262 121.561 131.008 119.53H131.013ZM116.058 127.801C113.223 128.358 113.865 126.01 113.842 121.819C113.825 117.628 116.837 116.001 116.837 116.001C116.837 116.001 119.893 117.593 120.227 119.964C120.56 122.334 121.983 123.268 121.983 123.268C121.983 123.268 118.899 127.244 116.058 127.801Z" fill="#F38467"/>
<path d="M122.41 123.484C122.263 123.484 122.109 123.471 121.952 123.444L122.012 123.087C122.609 123.184 123.119 123.068 123.531 122.743C124.551 121.938 124.688 120.11 124.69 120.093L125.051 120.118C125.046 120.199 124.904 122.121 123.758 123.026C123.372 123.33 122.922 123.484 122.412 123.484H122.41Z" fill="#C26952"/>
<path d="M104.009 142.338C103.812 135.1 109.605 131.224 112.102 129.894C112.181 129.852 112.236 129.822 112.256 129.81L112.457 130.109C112.432 130.127 112.368 130.161 112.271 130.213C109.831 131.514 104.178 135.294 104.369 142.331L104.006 142.341L104.009 142.338Z" fill="#C26952"/>
<path d="M109.999 114.975L109.882 117.469L110.245 117.486L110.362 114.992L109.999 114.975Z" fill="#C26952"/>
<path d="M104.858 113.853L104.351 116.624L104.708 116.689L105.215 113.918L104.858 113.853Z" fill="#C26952"/>
<path d="M100.083 115.721L99.7197 115.726L99.757 118.383L100.12 118.378L100.083 115.721Z" fill="#C26952"/>
<path d="M148.713 140.803C155.54 140.803 161.074 136.184 161.074 130.486C161.074 124.788 155.54 120.169 148.713 120.169C141.887 120.169 136.353 124.788 136.353 130.486C136.353 136.184 141.887 140.803 148.713 140.803Z" fill="#A3C6FF"/>
<path d="M149.099 136.976C153.877 136.976 157.749 134.09 157.749 130.531C157.749 126.971 153.877 124.085 149.099 124.085C144.322 124.085 140.449 126.971 140.449 130.531C140.449 134.09 144.322 136.976 149.099 136.976Z" fill="#BFD8FF"/>
<path d="M149.368 133.065C151.245 133.065 152.767 131.93 152.767 130.531C152.767 129.131 151.245 127.997 149.368 127.997C147.49 127.997 145.968 129.131 145.968 130.531C145.968 131.93 147.49 133.065 149.368 133.065Z" fill="#A3C6FF"/>
<path d="M136.176 102.367C136.176 102.367 138.514 104.869 141.52 106.026C144.527 107.18 152.292 108.337 158.221 102.689C164.15 97.0416 151.374 88.6372 144.276 91.3941C137.178 94.1509 136.176 102.367 136.176 102.367Z" fill="#A3C6FF"/>
<path d="M172.112 89.9401L171.614 99.3997C171.557 100.504 171.107 101.542 170.356 102.355C167.953 104.951 162.322 110.12 158.055 107.021C155.829 105.404 153.628 102.486 151.782 99.5558C151.133 98.5278 150.529 97.4949 149.982 96.5215C148.698 94.2302 145.388 94.2402 144.12 96.5363C143.635 97.4157 143.102 98.3396 142.528 99.2684C140.67 102.293 138.414 105.357 136.114 107.024C131.846 110.123 126.215 104.953 123.813 102.357C123.059 101.545 122.616 100.507 122.559 99.4022L122.059 89.9426C121.987 88.6149 122.771 87.3913 124.004 86.886C126.842 85.7342 132.204 84.0201 137.623 84.8152C138.638 84.9638 139.556 85.0827 140.384 85.1769C142.381 85.5534 148.221 86.3931 154.812 85.053C155.356 84.9837 155.931 84.9044 156.54 84.8152C161.964 84.0201 167.326 85.7367 170.159 86.886C171.398 87.3913 172.176 88.6149 172.104 89.9426L172.112 89.9401Z" fill="#FFD028"/>
<path d="M170.043 89.831L169.545 99.2906C169.513 99.9049 169.259 100.497 168.832 100.958C165.954 104.061 163.027 105.917 161.005 105.917C160.356 105.917 159.806 105.741 159.276 105.354C157.125 103.791 154.571 100.45 151.885 95.6841C151.855 95.6296 151.823 95.5726 151.79 95.5157C150.82 93.7793 149.052 92.7439 147.055 92.7439C145.058 92.7439 143.257 93.8165 142.305 95.5454C142.272 95.6024 142.24 95.6643 142.208 95.7213C139.569 100.467 137.044 103.799 134.896 105.357C134.373 105.736 133.809 105.919 133.167 105.919C131.145 105.919 128.218 104.064 125.338 100.958C124.917 100.502 124.664 99.9098 124.631 99.2931L124.132 89.8335C124.117 89.5709 124.204 89.3182 124.368 89.1201C124.477 88.9789 124.621 88.8674 124.796 88.7981C126.745 88.003 130.633 86.6753 134.764 86.6753C135.647 86.6753 136.51 86.7372 137.328 86.8561C138.343 87.0047 139.248 87.1236 140.081 87.2178C141.389 87.4605 144.006 87.8444 147.338 87.8444C150.029 87.8444 152.661 87.5918 155.158 87.0914C155.69 87.0221 156.255 86.9478 156.854 86.8561C157.665 86.7372 158.533 86.6753 159.413 86.6753C163.552 86.6753 167.436 88.003 169.381 88.7981C169.613 88.8922 169.799 89.0582 169.906 89.2662C170.008 89.4347 170.055 89.6303 170.043 89.8335V89.831Z" fill="#3E66B0"/>
<path d="M153.795 109.412C148.681 114.222 142.784 111.624 140.703 109.801C140.7 109.798 140.695 109.793 140.693 109.793C140.263 109.412 140.098 108.815 140.24 108.26C140.69 106.489 141.787 102.157 142.531 99.2635C143.103 98.3371 143.635 97.4132 144.123 96.5314C145.391 94.2353 148.704 94.2253 149.985 96.5166C150.532 97.49 151.136 98.5229 151.785 99.5509L154.25 107.646C154.441 108.27 154.275 108.958 153.797 109.409L153.795 109.412Z" fill="#BFD8FF"/>
<path d="M169.905 89.2638C165.354 90.5196 158.92 94.3094 151.887 95.6792C151.857 95.6247 151.824 95.5677 151.792 95.5108C150.822 93.7744 149.054 92.739 147.057 92.739C145.06 92.739 143.259 93.8116 142.306 95.5405C142.274 95.5975 142.242 95.6594 142.209 95.7164C135.081 94.3738 128.983 90.4577 124.367 89.1152C124.477 88.974 124.621 88.8625 124.795 88.7932C126.745 87.9981 130.632 86.6704 134.763 86.6704C135.646 86.6704 136.509 86.7323 137.327 86.8512C138.342 86.9999 139.247 87.1187 140.081 87.2129C141.389 87.4556 144.005 87.8395 147.338 87.8395C150.029 87.8395 152.66 87.5869 155.157 87.0865C155.689 87.0172 156.254 86.9429 156.853 86.8512C157.664 86.7323 158.532 86.6704 159.413 86.6704C163.551 86.6704 167.436 87.9981 169.381 88.7932C169.612 88.8873 169.799 89.0533 169.905 89.2613V89.2638Z" fill="#4A79D1"/>
<path d="M148.967 103.69C148.967 107.302 148.121 110.227 147.077 110.227C146.032 110.227 145.187 107.299 145.187 103.69C145.187 100.081 146.032 97.1533 147.077 97.1533C148.121 97.1533 148.967 100.081 148.967 103.69Z" fill="#DEEBFF"/>
<path d="M94.1949 144.637C94.1949 144.637 94.9012 152.606 105.439 153.18L102.019 158.664C102.019 158.664 92.9365 157.76 89.6162 147.986L94.1949 144.637Z" fill="#FFD028"/>
<path d="M188.663 114.856C189.438 114.084 189.438 112.833 188.663 112.061C187.888 111.289 186.632 111.289 185.857 112.061C185.081 112.833 185.081 114.084 185.857 114.856C186.632 115.628 187.888 115.628 188.663 114.856Z" fill="#CCDFFF"/>
<path d="M189.99 68.5279C189.99 69.0728 189.544 69.5162 188.997 69.5162C188.45 69.5162 188.005 69.0728 188.005 68.5279C188.005 67.9829 188.45 67.5396 188.997 67.5396C189.544 67.5396 189.99 67.9829 189.99 68.5279Z" fill="#CCDFFF"/>
<path d="M200.348 99.8197C200.348 100.417 199.863 100.9 199.264 100.9C198.665 100.9 198.18 100.417 198.18 99.8197C198.18 99.2228 198.665 98.7397 199.264 98.7397C199.863 98.7397 200.348 99.2228 200.348 99.8197Z" fill="#CCDFFF"/>
<path d="M70.7543 158.294C71.6046 158.294 72.2938 157.608 72.2938 156.761C72.2938 155.914 71.6046 155.228 70.7543 155.228C69.9041 155.228 69.2148 155.914 69.2148 156.761C69.2148 157.608 69.9041 158.294 70.7543 158.294Z" fill="#CCDFFF"/>
</g>
</g>
<defs>
<linearGradient id="paint0_linear_1203_15616" x1="138" y1="0.447266" x2="138" y2="195.203" gradientUnits="userSpaceOnUse">
<stop stop-color="white"/>
<stop offset="0.6875" stop-color="#A3A3A3" stop-opacity="0.94"/>
<stop offset="1" stop-color="#737373" stop-opacity="0"/>
</linearGradient>
<linearGradient id="paint1_linear_1203_15616" x1="136.515" y1="36.8022" x2="136.515" y2="201.991" gradientUnits="userSpaceOnUse">
<stop stop-color="#CCDFFF"/>
<stop offset="1" stop-color="#1889B8"/>
</linearGradient>
<linearGradient id="paint2_linear_1203_15616" x1="139.732" y1="60.7402" x2="139.732" y2="188.64" gradientUnits="userSpaceOnUse">
<stop stop-color="#E6EFFF"/>
<stop offset="1" stop-color="#1889B8"/>
</linearGradient>
</defs>
</svg>
