<svg width="30" height="31" viewBox="0 0 30 31" fill="none" xmlns="http://www.w3.org/2000/svg">
<g clip-path="url(#clip0_828_297)">
<path d="M15 1.3125C23.0081 1.3125 29.5 7.80437 29.5 15.8125C29.5 23.8206 23.0081 30.3125 15 30.3125C6.99188 30.3125 0.500001 23.8206 0.5 15.8125C0.5 7.80437 6.99188 1.3125 15 1.3125Z" fill="white" stroke="#EFEFEF"/>
<mask id="mask0_828_297" style="mask-type:luminance" maskUnits="userSpaceOnUse" x="5" y="5" width="20" height="21">
<path d="M24.5742 13.8522H15.2277V17.7276H20.6076C20.1061 20.1896 18.0088 21.603 15.2277 21.603C11.945 21.603 9.30061 18.9586 9.30061 15.6759C9.30061 12.3932 11.945 9.74885 15.2277 9.74885C16.641 9.74885 17.9176 10.2504 18.9207 11.0711L21.8386 8.15311C20.0605 6.60295 17.7809 5.64551 15.2277 5.64551C9.66535 5.64551 5.19727 10.1136 5.19727 15.6759C5.19727 21.2382 9.66535 25.7063 15.2277 25.7063C20.2429 25.7063 24.8021 22.0589 24.8021 15.6759C24.8021 15.0832 24.7109 14.4449 24.5742 13.8522Z" fill="white"/>
</mask>
<g mask="url(#mask0_828_297)">
<path d="M4.28516 21.6031V9.74902L12.0359 15.6761L4.28516 21.6031Z" fill="#FBBC05"/>
</g>
<mask id="mask1_828_297" style="mask-type:luminance" maskUnits="userSpaceOnUse" x="5" y="5" width="20" height="21">
<path d="M24.5742 13.8522H15.2277V17.7276H20.6076C20.1061 20.1896 18.0088 21.603 15.2277 21.603C11.945 21.603 9.30061 18.9586 9.30061 15.6759C9.30061 12.3932 11.945 9.74885 15.2277 9.74885C16.641 9.74885 17.9176 10.2504 18.9207 11.0711L21.8386 8.15311C20.0605 6.60295 17.7809 5.64551 15.2277 5.64551C9.66535 5.64551 5.19727 10.1136 5.19727 15.6759C5.19727 21.2382 9.66535 25.7063 15.2277 25.7063C20.2429 25.7063 24.8021 22.0589 24.8021 15.6759C24.8021 15.0832 24.7109 14.4449 24.5742 13.8522Z" fill="white"/>
</mask>
<g mask="url(#mask1_828_297)">
<path d="M4.28516 9.74908L12.0359 15.6761L15.2274 12.895L26.1697 11.1169V4.73389H4.28516V9.74908Z" fill="#EA4335"/>
</g>
<mask id="mask2_828_297" style="mask-type:luminance" maskUnits="userSpaceOnUse" x="5" y="5" width="20" height="21">
<path d="M24.5742 13.8522H15.2277V17.7276H20.6076C20.1061 20.1896 18.0088 21.603 15.2277 21.603C11.945 21.603 9.30061 18.9586 9.30061 15.6759C9.30061 12.3932 11.945 9.74885 15.2277 9.74885C16.641 9.74885 17.9176 10.2504 18.9207 11.0711L21.8386 8.15311C20.0605 6.60295 17.7809 5.64551 15.2277 5.64551C9.66535 5.64551 5.19727 10.1136 5.19727 15.6759C5.19727 21.2382 9.66535 25.7063 15.2277 25.7063C20.2429 25.7063 24.8021 22.0589 24.8021 15.6759C24.8021 15.0832 24.7109 14.4449 24.5742 13.8522Z" fill="white"/>
</mask>
<g mask="url(#mask2_828_297)">
<path d="M4.28516 21.6032L17.963 11.1169L21.5648 11.5728L26.1697 4.73389V26.6184H4.28516V21.6032Z" fill="#34A853"/>
</g>
<mask id="mask3_828_297" style="mask-type:luminance" maskUnits="userSpaceOnUse" x="5" y="5" width="20" height="21">
<path d="M24.5742 13.8522H15.2277V17.7276H20.6076C20.1061 20.1896 18.0088 21.603 15.2277 21.603C11.945 21.603 9.30061 18.9586 9.30061 15.6759C9.30061 12.3932 11.945 9.74885 15.2277 9.74885C16.641 9.74885 17.9176 10.2504 18.9207 11.0711L21.8386 8.15311C20.0605 6.60295 17.7809 5.64551 15.2277 5.64551C9.66535 5.64551 5.19727 10.1136 5.19727 15.6759C5.19727 21.2382 9.66535 25.7063 15.2277 25.7063C20.2429 25.7063 24.8021 22.0589 24.8021 15.6759C24.8021 15.0832 24.7109 14.4449 24.5742 13.8522Z" fill="white"/>
</mask>
<g mask="url(#mask3_828_297)">
<path d="M26.1703 26.6183L12.0366 15.6761L10.2129 14.3083L26.1703 9.74902V26.6183Z" fill="#4285F4"/>
</g>
</g>
<defs>
<clipPath id="clip0_828_297">
<rect width="29.9544" height="30" fill="white" transform="translate(0 0.8125)"/>
</clipPath>
</defs>
</svg>
