<svg width="18" height="17" viewBox="0 0 18 17" fill="none" xmlns="http://www.w3.org/2000/svg">
<path d="M9 13C9 13.3978 8.84196 13.7794 8.56066 14.0607C8.27936 14.342 7.89782 14.5 7.5 14.5C7.10218 14.5 6.72064 14.342 6.43934 14.0607C6.15804 13.7794 6 13.3978 6 13M10.125 10C9.72935 9.99436 9.35195 9.83262 9.075 9.55L8.55 8.95C7.95 8.35 7.05 8.35 6.45 8.95L5.925 9.55C5.64805 9.83262 5.27065 9.99436 4.875 10H4.5C3.70435 10 2.94129 9.68393 2.37868 9.12132C1.81607 8.55871 1.5 7.79565 1.5 7C1.5 6.20435 1.81607 5.44129 2.37868 4.87868C2.94129 4.31607 3.70435 4 4.5 4H10.5C11.2956 4 12.0587 4.31607 12.6213 4.87868C13.1839 5.44129 13.5 6.20435 13.5 7C13.5 7.79565 13.1839 8.55871 12.6213 9.12132C12.0587 9.68393 11.2956 10 10.5 10H10.125Z" stroke="#1889B8" stroke-width="1.3" stroke-linecap="round" stroke-linejoin="round"/>
<path d="M7.5 14.5C7.5 14.8978 7.65804 15.2794 7.93934 15.5607C8.22064 15.842 8.60218 16 9 16H12C14.475 16 16.5 13.975 16.5 11.5V1H13.5V11.5C13.5 11.8978 13.342 12.2794 13.0607 12.5607C12.7794 12.842 12.3978 13 12 13M13.5 7H16.5" stroke="#1889B8" stroke-width="1.3" stroke-linecap="round" stroke-linejoin="round"/>
<path d="M3.375 16C3.58211 16 3.75 15.8321 3.75 15.625C3.75 15.4179 3.58211 15.25 3.375 15.25C3.16789 15.25 3 15.4179 3 15.625C3 15.8321 3.16789 16 3.375 16Z" stroke="#1889B8" stroke-width="1.3" stroke-linecap="round" stroke-linejoin="round"/>
<path d="M2.25 12.625H2.2572" stroke="#1889B8" stroke-width="1.3" stroke-linecap="round" stroke-linejoin="round"/>
</svg>
