<svg width="30" height="31" viewBox="0 0 30 31" fill="none" xmlns="http://www.w3.org/2000/svg">
<g clip-path="url(#clip0_828_362)">
<path d="M14.9946 30.807C23.2758 30.807 29.9891 24.0937 29.9891 15.8124C29.9891 7.53116 23.2758 0.817871 14.9946 0.817871C6.71329 0.817871 0 7.53116 0 15.8124C0 24.0937 6.71329 30.807 14.9946 30.807Z" fill="#34E0A1"/>
<path d="M24.2557 12.8874L26.0651 10.9189H22.0526C20.0438 9.5467 17.6179 8.74756 14.9943 8.74756C12.3739 8.74756 9.95475 9.54842 7.94932 10.9189H3.92676L5.73616 12.8874C4.62708 13.8993 3.9318 15.3569 3.9318 16.9753C3.9318 20.0295 6.40803 22.5057 9.46223 22.5057C10.9131 22.5057 12.2349 21.9462 13.2218 21.0314L14.9943 22.9614L16.7668 21.0331C17.7536 21.9478 19.0738 22.5057 20.5247 22.5057C23.5789 22.5057 26.0584 20.0295 26.0584 16.9753C26.0601 15.3552 25.3648 13.8977 24.2557 12.8874ZM9.46387 20.7181C7.39644 20.7181 5.72111 19.0428 5.72111 16.9753C5.72111 14.9079 7.39648 13.2325 9.46387 13.2325C11.5313 13.2325 13.2066 14.9079 13.2066 16.9753C13.2066 19.0428 11.5313 20.7181 9.46387 20.7181ZM14.9959 16.8664C14.9959 14.4036 13.205 12.2893 10.841 11.3863C12.1193 10.8518 13.5216 10.5553 14.9943 10.5553C16.4669 10.5553 17.8708 10.8518 19.1492 11.3863C16.7869 12.291 14.9959 14.4037 14.9959 16.8664ZM20.5264 20.7181C18.4589 20.7181 16.7836 19.0428 16.7836 16.9753C16.7836 14.9079 18.4589 13.2325 20.5264 13.2325C22.5938 13.2325 24.2691 14.9079 24.2691 16.9753C24.2691 19.0428 22.5938 20.7181 20.5264 20.7181ZM20.5264 15.0118C19.4424 15.0118 18.5645 15.8897 18.5645 16.9737C18.5645 18.0576 19.4424 18.9355 20.5264 18.9355C21.6103 18.9355 22.4882 18.0576 22.4882 16.9737C22.4882 15.8914 21.6103 15.0118 20.5264 15.0118ZM11.4257 16.9753C11.4257 18.0593 10.5478 18.9372 9.46387 18.9372C8.37993 18.9372 7.50202 18.0593 7.50202 16.9753C7.50202 15.8914 8.37993 15.0135 9.46387 15.0135C10.5478 15.0118 11.4257 15.8914 11.4257 16.9753Z" fill="black"/>
</g>
<defs>
<clipPath id="clip0_828_362">
<rect width="30" height="30" fill="white" transform="translate(0 0.8125)"/>
</clipPath>
</defs>
</svg>
